<?xml version="1.0" encoding="UTF-8"?>
<svg width="32" height="32" viewBox="0 0 32 32" xmlns="http://www.w3.org/2000/svg">
    <style>
        @keyframes pulse {
            0% { opacity: 0.2; }
            50% { opacity: 0.6; }
            100% { opacity: 0.2; }
        }
        .circle { animation: pulse 2s infinite; }
    </style>
    <circle class="circle" cx="16" cy="16" r="14" fill="#4CAF50" opacity="0.2"/>
    <path d="M16 4C10.5 4 6 8.5 6 14s4.5 10 10 10 10-4.5 10-10S21.5 4 16 4zm0 18c-4.4 0-8-3.6-8-8s3.6-8 8-8 8 3.6 8 8-3.6 8-8 8z" fill="#4CAF50"/>
    <path d="M13 14c0-1.7 1.3-3 3-3s3 1.3 3 3-1.3 3-3 3-3-1.3-3-3zm5 0c0-1.1-.9-2-2-2s-2 .9-2 2 .9 2 2 2 2-.9 2-2z" fill="#4CAF50"/>
</svg>
